<?xml version="1.0" standalone="no"?>
<!DOCTYPE svg PUBLIC "-//W3C//DTD SVG 20010904//EN"
 "http://www.w3.org/TR/2001/REC-SVG-20010904/DTD/svg10.dtd">
<svg version="1.0" xmlns="http://www.w3.org/2000/svg"
 width="260.000000pt" height="260.000000pt" viewBox="0 0 260.000000 260.000000"
 preserveAspectRatio="xMidYMid meet">
<metadata>
Created by potrace 1.14, written by Peter Selinger 2001-2017
</metadata>
<g transform="translate(0.000000,260.000000) scale(0.100000,-0.100000)"
fill="#000000" stroke="none">
<path d="M1185 2538 c-244 -17 -486 -116 -695 -284 -72 -58 -114 -106 -180
-204 -24 -36 -56 -81 -72 -100 -15 -20 -52 -84 -82 -142 -30 -58 -57 -103 -61
-100 -3 4 -3 -2 1 -12 6 -15 4 -17 -6 -11 -8 5 -11 4 -6 -3 3 -6 -3 -45 -14
-87 -27 -102 -43 -262 -35 -365 8 -103 31 -239 50 -289 7 -20 28 -74 45 -121
101 -271 140 -324 367 -493 178 -134 323 -200 548 -248 118 -25 313 -35 407
-21 40 6 90 14 110 17 100 14 239 58 329 104 74 38 87 46 154 103 18 16 35 28
39 28 8 0 21 12 144 133 111 110 119 123 195 322 112 293 126 351 124 529 -1
81 -6 149 -12 155 -10 10 -13 -12 -14 -90 -1 -15 -8 -29 -16 -33 -8 -3 -15
-10 -15 -16 0 -6 5 -8 12 -4 7 5 8 3 3 -6 -14 -22 -67 45 -59 74 3 13 1 27 -6
31 -8 5 -8 10 1 21 6 8 8 14 3 14 -5 0 -3 4 4 9 11 6 10 11 -3 25 -16 15 -16
18 -1 41 15 23 15 25 -4 37 -11 7 -20 19 -20 26 0 7 -7 24 -16 37 -9 13 -13
29 -9 34 3 6 -3 19 -15 31 -11 11 -18 20 -16 20 3 0 0 14 -5 30 -6 17 -15 30
-21 30 -5 0 -7 4 -3 9 3 5 -1 16 -9 24 -8 8 -12 17 -9 21 3 3 -1 8 -9 11 -10
4 -14 14 -11 26 3 10 0 26 -7 34 -7 9 -10 18 -6 22 3 3 6 1 6 -5 0 -7 5 -12
12 -12 7 0 -7 19 -30 43 -23 23 -42 49 -42 58 0 8 -13 23 -30 32 -16 10 -30
22 -30 28 0 5 -6 9 -14 9 -8 0 -31 16 -52 35 -20 19 -41 35 -45 35 -5 0 -9 7
-9 16 0 9 -9 18 -20 21 -11 3 -20 9 -20 14 0 5 -7 9 -15 9 -8 0 -15 5 -15 12
0 6 -3 9 -6 5 -4 -3 -12 -1 -19 6 -7 7 -23 19 -35 27 -12 8 -29 21 -36 28 -8
7 -14 11 -14 8 0 -4 -22 6 -50 20 -27 14 -50 30 -50 35 0 4 -7 6 -15 3 -8 -4
-15 -2 -15 3 0 5 -6 10 -12 11 -46 6 -79 16 -89 28 -6 8 -20 14 -30 14 -10 0
-20 4 -23 9 -3 5 -15 7 -26 4 -14 -4 -20 0 -20 11 0 9 -4 16 -10 16 -5 0 -7
-7 -3 -16 5 -14 3 -15 -15 -5 -11 6 -36 11 -55 11 -18 0 -37 3 -41 7 -10 10
-181 12 -226 3 -31 -6 -37 -4 -46 14 -8 17 -7 22 5 23 9 1 27 4 41 6 14 2 31
-1 38 -6 8 -7 12 -4 12 7 0 10 9 16 25 16 14 0 25 -5 25 -11 0 -6 5 -5 13 3
12 11 36 14 93 9 11 -1 14 -8 10 -23 l-6 -23 11 22 c15 28 47 33 79 13 15 -9
21 -11 17 -2 -5 6 -4 12 2 12 5 0 13 -5 16 -11 4 -6 13 -8 19 -6 11 4 68 -4
116 -17 8 -3 23 -5 32 -5 9 -1 23 -7 30 -13 15 -15 48 -20 48 -8 0 9 -135 70
-156 70 -9 0 -39 7 -67 15 -71 20 -242 31 -362 23z m-66 -412 c-9 -8 -10 -8
-5 2 5 8 -3 14 -25 19 -31 6 -31 7 -10 15 13 4 26 6 30 4 4 -3 6 9 5 27 -3 23
0 20 7 -12 8 -33 8 -46 -2 -55z m121 74 c0 -5 -6 -10 -14 -10 -8 0 -16 -6 -19
-12 -2 -7 -8 -10 -12 -6 -4 4 -2 14 5 23 14 17 40 20 40 5z m47 -13 c-6 -20
-27 -19 -27 2 0 14 5 19 15 14 9 -3 14 -10 12 -16z m-202 3 c-3 -5 -10 -10
-16 -10 -5 0 -9 5 -9 10 0 6 7 10 16 10 8 0 12 -4 9 -10z m329 -16 c9 -24 7
-28 -9 -14 -17 14 -20 30 -6 30 5 0 12 -7 15 -16z m-374 -10 c0 -2 -7 -4 -15
-4 -8 0 -15 4 -15 10 0 5 7 7 15 4 8 -4 15 -8 15 -10z m208 -9 c0 -22 -5 -25
-32 -24 -30 2 -30 2 -3 6 15 2 25 9 22 14 -6 8 1 29 9 29 2 0 4 -11 4 -25z
m-334 8 c-5 -5 -12 -12 -16 -18 -4 -6 -8 -2 -8 8 0 9 7 17 17 17 9 0 12 -3 7
-7z m576 -34 c0 -6 -4 -7 -10 -4 -5 3 -10 11 -10 16 0 6 5 7 10 4 6 -3 10 -11
10 -16z m-600 -14 c-7 -9 -15 -13 -19 -10 -3 3 1 10 9 15 21 14 24 12 10 -5z
m433 -8 c4 3 7 1 7 -5 0 -6 -5 -14 -11 -18 -7 -4 -9 -22 -6 -45 3 -26 1 -39
-6 -39 -35 1 -53 42 -26 58 14 9 17 20 13 44 -5 30 -4 31 9 16 8 -10 17 -15
20 -11z m-47 -14 c-10 -10 -19 5 -10 18 6 11 8 11 12 0 2 -7 1 -15 -2 -18z
m-553 0 c-6 -16 -5 -16 10 -4 15 12 17 10 17 -20 l0 -33 -21 21 c-19 18 -21
53 -5 53 3 0 2 -8 -1 -17z m512 7 c3 -5 1 -10 -4 -10 -6 0 -11 -4 -11 -9 0 -5
10 -7 23 -3 20 5 21 4 8 -12 -14 -16 -15 -16 -34 2 -11 11 -16 25 -13 31 9 14
23 14 31 1z m241 -15 c8 -10 14 -30 14 -44 -1 -25 -2 -24 -15 7 -8 18 -19 31
-24 27 -11 -6 -51 15 -51 26 0 15 63 2 76 -16z m-353 -22 c3 -18 2 -33 -3 -33
-9 0 -19 57 -12 65 8 7 10 3 15 -32z m32 28 c3 -5 1 -12 -4 -15 -5 -3 -7 -16
-5 -29 4 -20 4 -21 -5 -2 -5 11 -10 28 -10 38 -1 18 14 23 24 8z m-466 -32
c-12 -7 -12 -9 0 -9 27 0 0 -14 -29 -15 -23 -1 -27 2 -18 13 8 9 13 9 18 2 4
-6 12 0 20 16 8 14 16 20 18 14 3 -7 -2 -16 -9 -21z m401 -33 c0 -2 -11 1 -25
7 -14 7 -25 20 -25 32 0 18 2 17 25 -7 14 -15 25 -29 25 -32z m-170 37 c0 -5
22 -30 50 -58 27 -27 49 -53 50 -57 1 -22 -50 -4 -81 29 -22 23 -27 34 -16 30
17 -6 17 -4 -3 28 -12 19 -17 35 -11 35 6 0 11 -3 11 -7z m727 -38 c13 -27 14
-39 5 -57 -10 -22 -11 -22 -11 7 -1 30 -13 57 -25 56 -18 -3 -24 0 -30 14 -4
11 1 15 19 15 19 0 30 -9 42 -35z m-837 4 c0 -14 -16 -11 -29 5 -10 12 -8 13
8 9 12 -3 21 -9 21 -14z m588 -34 c-11 -12 -38 8 -38 28 l0 21 22 -21 c12 -13
19 -25 16 -28z m348 -9 c1 -9 -5 -16 -14 -16 -8 0 -13 -3 -9 -6 9 -10 48 7 41
18 -4 6 2 6 15 -1 11 -7 21 -20 21 -29 0 -10 5 -23 12 -30 9 -9 9 -12 0 -12
-7 0 -12 -5 -12 -10 0 -6 7 -10 16 -8 10 2 19 -3 22 -11 3 -9 0 -11 -7 -6 -20
12 -61 -3 -55 -20 8 -20 -4 -65 -16 -65 -6 0 -9 15 -8 33 1 17 -2 40 -6 49 -8
17 -4 20 41 33 6 2 9 13 6 24 -6 22 -33 27 -62 12 -9 -5 -23 -6 -31 -1 -11 7
-10 13 4 34 9 15 14 32 10 38 -5 7 -1 8 11 0 10 -5 20 -17 21 -26z m-198 -11
c24 -27 13 -44 -12 -19 -14 13 -22 44 -13 44 2 0 13 -11 25 -25z m-708 -9 c0
-8 9 -33 20 -57 11 -24 20 -53 20 -64 0 -11 -10 2 -23 30 -18 37 -25 45 -30
32 -4 -10 -16 -17 -29 -16 -17 1 -18 2 -5 6 9 2 17 11 17 18 0 7 5 15 12 17 7
3 9 12 4 23 -5 15 -9 16 -15 6 -6 -9 -11 -10 -15 -3 -7 12 24 33 36 26 5 -3 8
-11 8 -18z m90 -7 c0 -6 -4 -7 -10 -4 -5 3 -10 11 -10 16 0 6 5 7 10 4 6 -3
10 -11 10 -16z m559 -19 c1 -3 -18 -6 -42 -8 l-42 -3 35 25 c34 23 45 21 49
-14z m-934 10 c-5 -15 -2 -20 13 -20 11 0 26 -8 33 -17 13 -16 12 -17 -3 -4
-25 19 -23 -2 2 -24 11 -10 17 -21 15 -25 -3 -4 11 -11 30 -14 19 -4 35 -11
35 -17 0 -5 20 -19 45 -31 25 -12 45 -28 45 -35 0 -7 7 -13 15 -13 8 0 15 -7
15 -15 0 -8 -4 -15 -9 -15 -5 0 -18 -3 -28 -6 -16 -6 -16 -5 2 10 11 10 15 15
8 12 -6 -4 -16 2 -22 11 -9 15 -12 16 -20 4 -8 -12 -18 -7 -57 24 -29 24 -42
41 -34 43 7 3 19 -4 27 -14 8 -11 18 -19 23 -19 4 0 12 -3 16 -7 11 -11 24
-10 24 2 0 6 -6 10 -14 10 -8 0 -28 12 -45 26 -17 14 -35 23 -40 20 -5 -4 -18
5 -30 19 -11 15 -22 26 -25 26 -3 -1 -5 1 -3 3 4 7 -36 46 -47 46 -6 0 -5 -4
3 -9 7 -5 10 -14 7 -20 -4 -6 -2 -11 4 -11 6 0 8 -5 5 -10 -4 -6 -11 -8 -16
-5 -5 4 -9 -3 -9 -14 0 -12 5 -21 10 -21 6 0 8 -11 4 -27 -10 -41 -14 -45 -30
-32 -23 19 -17 -18 7 -42 11 -11 18 -27 15 -34 -3 -9 0 -12 10 -8 7 3 14 0 14
-7 0 -16 26 -41 35 -32 4 4 1 -6 -6 -21 l-13 -28 -14 23 c-8 14 -11 16 -8 5 3
-11 2 -15 -4 -12 -6 3 -10 13 -10 21 0 11 -9 13 -35 11 -20 -3 -38 0 -41 5 -3
5 -14 6 -25 3 -11 -4 -19 -2 -19 6 0 8 -4 8 -12 1 -13 -10 -18 -12 -40 -12 -9
0 -8 -4 2 -10 8 -5 10 -10 4 -10 -7 0 -10 -14 -8 -35 1 -19 -1 -34 -4 -34 -22
3 -29 -4 -28 -31 1 -16 4 -30 7 -30 4 0 3 -19 -2 -41 -6 -23 -7 -44 -4 -47 3
-3 5 1 5 9 0 8 10 20 23 28 22 14 22 13 4 -7 -10 -11 -14 -23 -9 -26 6 -3 12
1 16 9 8 23 26 18 25 -7 0 -21 -1 -21 -8 -4 -7 19 -8 19 -16 0 -4 -10 -9 -23
-9 -27 -1 -4 -8 -12 -16 -17 -10 -7 -11 -10 -2 -10 6 0 12 -7 12 -15 0 -8 6
-15 14 -15 8 0 17 -6 19 -12 3 -7 8 1 12 19 l7 31 29 -29 c16 -16 36 -44 45
-61 9 -18 23 -38 30 -46 8 -7 17 -24 20 -38 3 -13 12 -24 20 -24 8 0 14 -7 14
-16 0 -13 -5 -12 -29 5 -16 12 -37 21 -46 21 -9 0 -13 5 -10 10 3 6 0 10 -7
10 -9 0 -9 3 -2 8 8 5 7 16 -2 37 -7 17 -13 24 -14 18 0 -7 -5 -13 -11 -13 -5
0 -7 5 -4 11 4 6 -2 5 -14 -3 -19 -11 -19 -14 -6 -24 26 -19 18 -35 -12 -23
-20 7 -28 6 -35 -3 -11 -18 -10 -25 7 -42 8 -8 15 -26 15 -40 0 -14 5 -28 10
-31 6 -4 8 -15 5 -26 -4 -11 -2 -19 4 -19 6 0 11 5 11 12 0 7 18 -7 41 -30 35
-37 39 -45 28 -60 -11 -14 -11 -15 1 -5 21 19 30 16 30 -9 0 -15 3 -19 8 -11
6 9 18 6 47 -13 37 -23 38 -25 13 -21 -21 3 -28 0 -29 -12 -1 -9 -2 -25 -3
-36 0 -11 -11 -21 -26 -25 -20 -5 -25 -12 -25 -35 -1 -44 -14 -75 -30 -69 -7
3 -16 0 -21 -7 -4 -8 -3 -10 4 -5 7 4 12 1 12 -8 0 -8 -5 -16 -11 -18 -5 -2
-11 -17 -11 -34 -1 -35 38 -87 60 -79 7 2 10 1 7 -4 -3 -5 -1 -12 5 -16 5 -3
10 -1 10 4 0 7 19 10 45 9 46 -1 58 -11 28 -22 -28 -11 35 -48 69 -40 21 4 28
1 33 -16 3 -11 10 -18 15 -15 4 2 13 -9 20 -25 7 -16 28 -38 47 -50 21 -12 32
-25 27 -33 -4 -6 4 -1 17 12 16 16 20 25 12 28 -22 8 -14 23 11 21 19 -2 22
-5 14 -15 -6 -7 -7 -13 -2 -13 5 0 2 -6 -7 -13 -15 -11 -15 -15 -3 -32 12 -16
14 -17 14 -2 0 19 15 23 25 7 4 -6 11 -8 16 -5 5 4 9 -1 9 -9 0 -9 4 -16 10
-16 5 0 7 6 4 13 -4 10 3 12 26 9 16 -2 30 -8 30 -13 0 -6 8 -5 19 1 14 7 31
6 59 -4 35 -12 41 -13 46 -1 3 8 1 17 -4 20 -6 4 -10 2 -10 -3 0 -6 -9 -8 -20
-5 -11 3 -17 10 -13 16 4 7 0 8 -11 4 -14 -5 -17 -3 -12 8 4 10 -1 15 -15 15
-11 0 -18 -3 -16 -7 3 -5 -19 -8 -49 -8 -38 0 -54 4 -54 13 0 7 -4 11 -9 7 -5
-3 -12 -1 -16 4 -7 12 32 34 46 26 5 -4 16 -1 24 5 9 8 29 9 55 5 49 -8 54
-23 5 -17 -42 5 -85 -4 -85 -18 0 -6 11 -7 28 -3 45 12 186 7 177 -6 -3 -5 -1
-12 4 -15 5 -4 12 -2 16 4 8 13 62 13 70 0 4 -6 11 -8 16 -5 5 4 16 -1 25 -10
9 -9 19 -13 22 -10 4 3 0 10 -8 15 -10 6 2 8 33 7 26 -1 47 2 47 7 0 4 11 5
25 2 15 -4 25 -2 25 4 0 6 5 8 10 5 6 -3 10 -14 10 -25 0 -10 7 -20 15 -24 8
-3 15 -13 15 -23 -1 -17 -1 -17 -14 0 -8 10 -16 15 -19 10 -3 -5 1 -16 8 -27
13 -17 14 -17 31 2 16 19 19 19 42 4 23 -15 24 -15 20 4 -2 10 -10 18 -16 16
-7 -1 -12 3 -12 9 0 5 -6 7 -12 3 -7 -4 -4 2 6 14 11 12 25 22 32 22 7 0 14 3
17 8 2 4 2 2 1 -5 -4 -16 21 -24 36 -10 10 9 11 9 8 -3 -3 -8 -13 -14 -22 -14
-14 2 -14 -1 -4 -13 10 -12 8 -18 -8 -31 -11 -10 -25 -29 -32 -44 -10 -24 -9
-28 4 -28 8 0 12 4 9 10 -3 5 1 20 9 32 9 12 16 17 16 11 0 -7 -4 -15 -10 -18
-5 -3 -10 -11 -10 -17 0 -6 6 -6 15 2 9 7 18 10 22 6 8 -7 -11 -28 -29 -33
-71 -16 -112 -22 -119 -17 -5 3 -9 1 -9 -4 0 -6 -60 -11 -147 -11 -128 -2
-162 2 -248 24 -102 25 -195 59 -229 81 -10 7 -25 10 -34 7 -9 -4 -13 -2 -9 4
8 13 -20 26 -35 16 -6 -3 -8 -1 -4 5 3 6 2 13 -3 16 -5 3 -11 -3 -14 -15 -5
-17 10 -27 106 -74 89 -43 115 -51 126 -42 12 10 14 9 8 -5 -4 -12 2 -19 25
-27 17 -6 40 -11 50 -11 11 0 17 -3 15 -7 -3 -5 14 -9 36 -9 23 -1 50 -5 60
-9 11 -4 17 -3 17 5 0 10 3 10 14 1 8 -7 50 -13 96 -13 65 -1 80 -4 78 -16 -5
-24 -37 -40 -47 -23 -6 9 -29 13 -75 13 -38 0 -64 3 -61 9 9 13 -7 10 -29 -6
-16 -12 -21 -12 -40 1 -13 8 -26 11 -29 8 -4 -4 -13 -1 -22 6 -8 7 -15 10 -15
7 0 -7 -89 18 -150 43 -73 29 -85 33 -92 32 -5 -1 -8 3 -8 9 0 5 -4 8 -9 4 -5
-3 -12 -1 -16 5 -3 5 -27 20 -53 31 -26 12 -66 40 -90 63 -23 22 -55 48 -70
56 -16 9 -53 42 -83 75 -30 32 -68 74 -86 92 -17 18 -35 44 -39 56 -3 12 -17
36 -30 54 -13 17 -24 36 -24 41 0 19 -27 62 -34 54 -4 -4 -5 5 -1 21 6 22 4
26 -8 21 -16 -6 -17 -5 -18 63 -1 18 -6 30 -11 27 -5 -3 -8 0 -7 7 1 8 -2 32
-6 54 -5 22 -8 43 -7 48 1 4 -3 7 -8 7 -6 0 -10 18 -10 41 0 22 -5 49 -10 60
-8 13 -7 19 0 19 6 0 8 5 5 10 -10 17 -8 163 3 192 6 14 9 45 7 68 -3 30 0 43
11 47 13 5 13 7 2 14 -10 6 -10 11 0 21 9 9 15 9 23 1 8 -8 8 -29 0 -78 -7
-36 -9 -70 -6 -74 8 -14 9 -246 1 -259 -4 -7 -1 -12 7 -12 10 0 19 -19 27 -52
6 -29 18 -66 25 -83 7 -16 19 -48 26 -70 25 -77 24 -54 -3 82 -29 145 -35 246
-24 378 5 57 12 84 23 93 10 7 12 12 4 12 -15 0 -6 57 17 110 16 36 19 43 21
60 0 6 5 10 11 10 5 0 7 -7 4 -15 -4 -8 -1 -15 7 -15 7 0 9 3 6 7 -4 3 -2 12
4 20 9 10 7 13 -7 13 -14 0 -16 2 -6 9 8 4 13 11 13 15 -2 25 40 107 53 103 6
-2 10 -18 10 -35 -1 -33 14 -46 37 -32 11 7 10 10 -4 16 -9 3 -17 11 -17 16 0
6 7 8 15 4 8 -3 15 -1 15 4 0 6 -6 10 -14 10 -7 0 -19 7 -26 15 -20 24 10 79
82 153 33 34 62 62 65 62 2 0 1 -9 -2 -20z m725 -7 c56 -6 66 -9 78 -20 7 -7
26 -13 41 -13 15 0 32 -5 39 -12 7 -7 12 -9 12 -5 0 4 10 -1 22 -13 13 -12 29
-18 40 -14 13 4 16 1 12 -9 -3 -9 3 -16 15 -20 15 -3 18 -1 14 12 -4 13 -3 13
7 -1 6 -10 18 -18 25 -18 8 0 15 -5 15 -11 0 -8 6 -7 17 2 9 8 14 10 11 4 -3
-5 -2 -19 3 -30 6 -16 8 -17 8 -3 1 9 6 20 13 24 7 4 8 3 4 -4 -4 -7 -3 -12 3
-12 5 0 13 5 16 10 4 6 11 8 16 4 6 -3 3 -11 -7 -18 -16 -12 -16 -13 1 -19 10
-4 15 -13 11 -22 -3 -8 0 -14 7 -12 7 1 11 -6 11 -15 -2 -24 12 -23 19 1 2 11
-3 24 -14 32 -20 14 -27 35 -7 23 8 -5 9 -2 5 10 -5 12 -3 16 5 14 7 -3 14
-15 16 -27 3 -16 8 -20 21 -16 27 8 44 -17 31 -49 -7 -19 -6 -25 3 -23 7 1 11
-7 9 -22 -2 -21 0 -22 15 -10 10 9 14 9 10 2 -5 -7 1 -18 13 -25 11 -7 20 -20
20 -28 0 -9 5 -21 12 -28 9 -9 8 -12 -6 -12 -9 0 -15 -4 -12 -9 4 -5 0 -12 -6
-14 -8 -3 -6 -6 5 -6 9 -1 17 4 17 9 0 6 6 10 14 10 8 0 16 7 20 15 3 8 10 15
16 15 6 0 2 -10 -9 -22 -22 -23 -25 -69 -5 -61 7 2 15 -1 19 -7 3 -6 3 -10 -2
-9 -4 1 -15 1 -23 0 -12 -1 -11 -5 4 -16 12 -9 15 -15 7 -15 -7 0 -11 -6 -8
-15 4 -8 2 -17 -3 -20 -10 -6 -8 -23 8 -52 7 -13 10 -23 7 -23 -3 0 -1 -9 5
-20 6 -12 8 -30 4 -42 -6 -19 -7 -20 -16 -4 -5 9 -7 23 -5 30 3 7 -4 18 -14
24 -12 8 -19 25 -20 45 l-1 32 -8 -30 c-7 -29 -8 -29 -10 -5 -2 14 -4 30 -4
35 -2 15 -16 35 -25 35 -5 0 -3 -25 4 -55 8 -32 9 -57 4 -61 -5 -3 -9 9 -9 26
0 28 -2 31 -22 24 -22 -6 -23 -6 -5 14 17 18 17 20 1 18 -9 0 -19 5 -21 12 -3
8 1 10 13 5 12 -4 15 -2 12 8 -3 8 -11 13 -17 11 -7 -1 -10 2 -7 7 4 5 2 12
-3 15 -5 3 -7 16 -3 28 5 21 5 21 -14 2 -17 -16 -18 -21 -5 -30 8 -7 12 -20 8
-32 -3 -12 -1 -25 4 -28 5 -3 7 -10 3 -15 -3 -5 0 -16 6 -24 7 -8 10 -24 7
-36 -3 -12 -2 -32 3 -45 5 -13 6 -24 1 -24 -11 0 -21 25 -21 55 0 31 -20 43
-27 16 -3 -12 -13 -21 -22 -21 -14 0 -17 7 -13 30 3 24 1 30 -14 30 -15 0 -16
2 -5 9 11 7 10 10 -5 15 -12 4 -20 16 -22 33 -1 16 2 23 6 17 4 -7 20 -12 36
-12 18 0 24 3 15 9 -7 4 -17 5 -21 3 -8 -5 -12 10 -9 34 1 7 -5 15 -14 18 -22
9 -19 24 5 24 11 0 20 -5 20 -11 0 -5 5 -7 12 -3 7 5 5 12 -8 22 -15 12 -15
13 -2 9 17 -6 46 19 34 30 -3 3 -6 1 -6 -5 0 -7 -13 -12 -28 -12 -21 0 -28 5
-29 20 -2 24 1 25 21 5 9 -9 17 -11 21 -5 3 5 2 10 -4 10 -6 0 -8 12 -4 30 5
30 -4 39 -23 20 -11 -11 -54 -2 -54 11 0 5 -7 6 -15 3 -8 -4 -15 -1 -15 5 0 6
-7 11 -15 11 -8 0 -15 5 -15 12 0 6 3 8 6 5 4 -4 15 3 25 15 15 16 28 12 17
-6 -7 -10 35 -44 50 -42 9 2 16 6 15 9 -2 4 -3 11 -3 16 0 5 -11 12 -25 15
-24 6 -36 26 -15 26 6 0 10 4 10 9 0 5 -9 7 -20 4 -11 -3 -27 0 -35 7 -10 8
-15 9 -15 2 0 -6 5 -14 10 -17 17 -10 1 -25 -27 -25 -21 0 -24 -2 -13 -15 7
-9 8 -15 2 -15 -13 0 -25 32 -15 39 13 9 15 33 2 26 -6 -4 -17 2 -25 14 -8 12
-21 21 -27 21 -7 0 -18 10 -26 21 -12 20 -11 21 10 16 21 -6 21 -4 -6 21 -29
27 -45 34 -78 33 -12 0 -17 5 -14 13 4 10 -9 16 -49 21 -34 4 -57 12 -61 21
-4 12 -8 12 -20 2 -18 -15 -43 -19 -43 -8 0 4 -7 11 -16 14 -8 3 -12 2 -9 -4
8 -13 -1 -13 -26 0 -15 8 -19 7 -19 -3 0 -8 -11 -17 -25 -19 -29 -6 -32 7 -9
33 12 14 22 16 40 9 16 -7 24 -6 24 1 0 7 11 9 28 6 15 -2 36 -1 47 3 11 4 22
5 25 1 3 -3 16 -7 30 -8z m-225 -33 c-3 -5 -18 -10 -33 -10 -21 0 -24 2 -12
10 20 13 53 13 45 0z m470 -10 c-3 -5 -10 -10 -16 -10 -5 0 -9 5 -9 10 0 6 7
10 16 10 8 0 12 -4 9 -10z m83 -15 c-12 -27 -28 -34 -28 -12 0 14 20 37 32 37
4 0 2 -11 -4 -25z m300 -4 c7 -4 14 -22 14 -39 1 -18 6 -32 12 -32 6 0 5 -4
-3 -9 -11 -7 -9 -10 8 -16 11 -3 21 -10 21 -15 0 -5 -7 -6 -17 -3 -11 4 -14 3
-9 -6 11 -17 -10 -39 -46 -46 -25 -6 -29 -11 -26 -30 4 -21 3 -22 -18 -13 -26
12 -41 45 -27 58 16 16 63 23 63 9 0 -10 2 -11 13 0 11 11 18 111 8 111 -3 0
-13 -7 -23 -17 -10 -9 -21 -13 -24 -10 -10 9 16 37 33 37 13 0 13 3 3 15 -13
16 -3 20 18 6z m-743 -31 c-3 -5 -11 -10 -16 -10 -6 0 -7 5 -4 10 3 6 11 10
16 10 6 0 7 -4 4 -10z m59 -5 c3 -9 0 -15 -9 -15 -9 0 -12 6 -9 15 4 8 7 15 9
15 2 0 5 -7 9 -15z m756 5 c0 -5 -2 -10 -4 -10 -3 0 -8 5 -11 10 -3 6 -1 10 4
10 6 0 11 -4 11 -10z m-799 -23 c-10 -9 -11 -8 -5 6 3 10 9 15 12 12 3 -3 0
-11 -7 -18z m159 13 c0 -5 -2 -10 -4 -10 -3 0 -8 5 -11 10 -3 6 -1 10 4 10 6
0 11 -4 11 -10z m57 -12 c0 -13 -1 -17 -4 -10 -3 6 -9 10 -14 6 -5 -3 -9 -1
-9 5 0 5 6 12 13 14 6 3 12 6 12 6 1 1 1 -9 2 -21z m29 -25 c-11 -11 -19 6
-11 24 8 17 8 17 12 0 3 -10 2 -21 -1 -24z m-367 -3 c-6 -16 -15 -27 -20 -24
-5 3 -6 -3 -2 -12 5 -14 3 -16 -11 -11 -10 4 -19 1 -22 -8 -4 -10 -15 -13 -31
-10 -24 4 -25 3 -8 -15 11 -12 14 -26 10 -39 -8 -27 -25 -17 -25 14 0 17 -8
26 -31 34 -17 6 -35 8 -40 5 -5 -3 -9 3 -9 12 0 10 3 15 6 11 4 -3 13 1 21 9
9 8 21 13 29 10 7 -3 15 0 18 7 2 7 5 4 5 -5 1 -11 8 -18 19 -17 10 0 12 3 5
6 -7 2 -13 13 -13 23 0 23 40 15 41 -9 0 -10 2 -11 6 -3 2 6 11 12 18 12 8 0
19 9 25 20 16 30 20 24 9 -10z m-769 -4 c0 -3 -4 -8 -10 -11 -5 -3 -10 -1 -10
4 0 6 5 11 10 11 6 0 10 -2 10 -4z m1118 -40 c13 -14 20 -31 16 -37 -4 -7 -3
-9 4 -5 14 9 34 -28 26 -49 -4 -9 -13 -14 -21 -11 -8 3 -11 2 -8 -3 7 -12 65
-11 65 1 0 5 5 6 12 2 7 -4 8 -3 4 5 -6 9 -11 9 -21 1 -10 -8 -14 -3 -19 22
-3 18 -17 45 -31 60 -14 15 -21 29 -17 31 18 9 37 0 51 -24 9 -14 28 -43 42
-65 32 -49 42 -84 24 -84 -8 0 -20 7 -29 15 -10 11 -28 14 -60 11 -25 -3 -48
0 -51 5 -4 5 -1 9 6 9 7 0 10 2 8 5 -10 10 -49 -8 -54 -25 -6 -19 -43 -17 -57
3 -6 10 -17 -33 -21 -81 -1 -14 -6 -21 -14 -17 -7 3 -19 8 -27 11 -20 8 -14
-55 9 -90 9 -14 15 -33 11 -41 -3 -8 -2 -15 2 -15 14 0 7 -55 -8 -62 -42 -19
-70 7 -70 65 0 49 17 39 22 -13 2 -25 9 -36 22 -38 11 -3 16 0 11 7 -3 6 -11
9 -16 6 -10 -7 -12 15 -3 39 3 9 10 13 15 10 5 -3 9 -1 9 4 0 6 -7 13 -16 16
-9 3 -14 12 -11 19 2 6 1 36 -3 65 -4 34 -3 52 4 52 8 0 8 3 1 8 -18 12 -19
81 -1 88 9 3 13 10 10 15 -3 5 3 9 13 9 17 1 17 1 1 11 -10 5 -28 9 -40 8 -40
-4 -59 1 -53 11 3 6 14 10 25 10 13 0 17 5 13 20 -3 10 2 26 11 35 9 9 16 12
16 6 0 -5 -4 -13 -10 -16 -17 -10 -11 -25 9 -25 11 0 26 -8 33 -18 17 -24 45
-34 52 -19 2 7 5 0 5 -14 1 -15 8 -30 17 -33 13 -5 14 -3 6 7 -9 11 -10 30 -3
80 0 5 7 5 14 1 7 -4 7 -2 -2 7 -10 11 -15 11 -18 1 -3 -6 -9 -10 -13 -7 -14
9 0 34 15 29 7 -3 19 1 26 9 16 17 32 10 67 -27z m-1123 4 c-3 -4 -16 -7 -30
-7 -19 0 -23 2 -15 12 11 13 53 9 45 -5z m335 11 c0 -6 -4 -13 -10 -16 -5 -3
-10 1 -10 9 0 9 5 16 10 16 6 0 10 -4 10 -9z m-70 -28 c0 -13 -3 -13 -15 -3
-8 7 -15 16 -15 21 0 5 7 6 15 3 8 -4 15 -13 15 -21z m92 -5 c-7 -7 -12 -8
-12 -2 0 14 12 26 19 19 2 -3 -1 -11 -7 -17z m1383 2 c4 -11 11 -17 17 -14 6
4 8 2 4 -4 -3 -6 -2 -13 4 -17 13 -8 13 -72 -1 -80 -17 -11 -21 2 -8 26 9 17
9 24 0 27 -6 2 -9 8 -6 13 4 5 0 7 -7 4 -7 -3 -19 4 -27 16 -12 20 -11 21 6
15 14 -6 16 -5 6 5 -15 15 -17 29 -4 29 5 0 13 -9 16 -20z m-531 -6 c3 -8 2
-12 -4 -9 -6 3 -10 10 -10 16 0 14 7 11 14 -7z m-1212 -9 c7 4 6 1 -2 -7 -8
-7 -17 -22 -18 -33 -7 -36 -72 -163 -87 -169 -19 -7 -19 4 0 18 8 6 15 31 16
59 2 26 7 47 11 47 5 0 6 6 1 13 -13 21 -12 36 3 30 8 -3 14 -2 12 3 -1 5 4
19 11 32 10 18 15 21 26 12 8 -7 20 -9 27 -5z m408 -17 c0 -13 -32 -6 -37 9
-3 7 3 9 16 6 12 -3 21 -10 21 -15z m1285 -9 c-4 -5 -13 -9 -22 -9 -13 0 -13
3 -3 15 13 15 35 11 25 -6z m-1184 -127 c0 -23 4 -50 10 -60 7 -12 9 -31 5
-48 -8 -31 -7 -32 -43 23 -12 17 -13 16 -11 -7 3 -53 -3 -87 -17 -106 -14 -18
-14 -17 -5 9 13 37 13 93 0 118 -7 12 -7 19 -1 19 6 0 8 7 5 15 -4 8 -13 15
-21 15 -12 0 -12 2 1 16 20 19 20 22 0 20 -9 0 -19 5 -22 13 -3 8 0 11 7 7 7
-5 9 -1 5 8 -3 9 -15 16 -26 16 -10 0 -16 5 -13 10 3 6 15 10 26 10 11 0 18 4
15 8 -3 5 2 19 10 31 16 22 16 22 46 -26 23 -36 31 -59 29 -91z m134 118 c-3
-5 -15 -10 -25 -10 -10 0 -22 5 -25 10 -4 6 7 10 25 10 18 0 29 -4 25 -10z
m254 -121 c11 -116 8 -168 -5 -101 -4 18 -9 32 -13 32 -3 0 -4 25 -3 56 2 31
0 54 -5 51 -4 -3 -6 15 -4 39 6 77 17 47 30 -77z m812 108 c-1 -12 -15 -9 -19
4 -3 6 1 10 8 8 6 -3 11 -8 11 -12z m-1091 -49 c0 -25 -3 -29 -10 -18 -13 20
-13 50 0 50 6 0 10 -15 10 -32z m1050 22 c0 -5 -4 -10 -10 -10 -5 0 -10 5 -10
10 0 6 5 10 10 10 6 0 10 -4 10 -10z m-1005 -40 c0 -28 6 -44 20 -54 22 -17
22 -17 -17 -21 -16 -2 -29 2 -32 11 -3 8 0 14 6 14 7 0 9 14 5 39 -5 38 -1 51
12 51 4 0 6 -18 6 -40z m634 -10 c1 -13 0 -13 -9 0 -5 8 -9 24 -9 35 l0 20 9
-20 c5 -11 9 -27 9 -35z m-1105 25 c-4 -8 -8 -15 -10 -15 -2 0 -4 7 -4 15 0 8
4 15 10 15 5 0 7 -7 4 -15z m1140 6 c4 -5 0 -12 -6 -14 -8 -3 -6 -6 4 -6 12
-1 15 -6 11 -18 -4 -11 -3 -14 5 -9 7 4 12 1 12 -6 0 -8 -9 -14 -19 -15 -13
-1 -18 3 -15 12 3 7 1 16 -5 20 -13 8 -15 45 -2 45 6 0 12 -4 15 -9z m67 -14
c-10 -9 -11 -8 -5 6 3 10 9 15 12 12 3 -3 0 -11 -7 -18z m-1281 -9 c0 -6 -6
-5 -15 2 -8 7 -15 14 -15 16 0 2 7 1 15 -2 8 -4 15 -11 15 -16z m120 12 c12
-8 11 -10 -7 -10 -13 0 -23 5 -23 10 0 13 11 13 30 0z m1589 -35 c23 -50 27
-80 10 -91 -8 -5 -10 1 -6 19 6 22 4 24 -13 20 -22 -6 -30 22 -9 29 7 2 9 13
4 27 -6 21 -7 21 -21 4 -13 -17 -13 -17 -14 4 0 12 6 24 13 26 6 3 13 6 13 6
1 1 11 -19 23 -44z m-1429 20 c-7 -9 -15 -13 -17 -11 -7 7 7 26 19 26 6 0 6
-6 -2 -15z m1324 0 c-25 -19 -40 -19 -24 0 7 8 20 15 28 15 13 0 12 -3 -4 -15z
m-1316 -45 c3 -8 1 -12 -3 -8 -4 4 -14 0 -21 -10 -10 -14 -15 -15 -25 -4 -11
10 -10 12 4 12 11 0 14 5 10 16 -4 12 -1 15 12 13 10 -2 20 -11 23 -19z m866
-18 c2 -17 -1 -29 -5 -26 -5 3 -9 14 -9 25 0 11 -7 19 -17 20 -15 0 -15 2 2 8
25 10 24 11 29 -27z m-1164 19 c0 -6 -4 -13 -10 -16 -5 -3 -10 1 -10 9 0 9 5
16 10 16 6 0 10 -4 10 -9z m520 -31 c0 -5 7 -10 15 -10 8 0 15 -4 15 -10 0 -5
-8 -10 -18 -10 -17 0 -18 -6 -10 -67 4 -38 12 -80 17 -95 13 -36 -6 -38 -19
-3 -5 14 -15 25 -22 25 -9 0 -8 -3 2 -10 13 -8 13 -11 -2 -27 -17 -16 -18 -16
-18 9 0 15 9 32 23 42 12 9 16 14 8 10 -10 -5 -13 -2 -9 12 3 11 2 44 -2 74
-4 30 -6 58 -3 63 6 10 23 9 23 -3z m1120 -22 c0 -5 -9 -4 -20 2 -11 6 -18 15
-14 21 6 11 34 -7 34 -23z m-1030 12 c0 -5 -8 -10 -17 -10 -15 0 -16 2 -3 10
19 12 20 12 20 0z m110 6 c0 -2 -7 -7 -16 -10 -8 -3 -12 -2 -9 4 6 10 25 14
25 6z m-600 -16 c0 -5 -5 -10 -11 -10 -5 0 -7 5 -4 10 3 6 8 10 11 10 2 0 4
-4 4 -10z m167 -7 c-9 -9 -20 -13 -24 -9 -4 4 -1 11 7 16 25 16 35 11 17 -7z
m-87 -23 c0 -12 -37 0 -51 16 -9 12 -6 12 20 3 17 -6 31 -15 31 -19z m821 1
c-7 -5 -10 -14 -7 -20 7 -11 -6 -16 -17 -5 -10 10 5 34 22 34 13 0 13 -2 2 -9z
m739 -8 c0 -17 -27 -53 -40 -53 -10 0 23 69 33 70 4 0 7 -8 7 -17z m-1466 -20
c11 -56 10 -137 -1 -140 -8 -3 -12 17 -12 62 0 36 -3 74 -6 85 -4 11 -2 20 4
20 5 0 12 -12 15 -27z m1426 18 c0 -10 -78 -26 -87 -18 -2 3 15 10 39 15 23 5
44 10 46 11 1 1 2 -3 2 -8z m-1481 -133 c5 -51 4 -68 -5 -68 -8 0 -13 29 -16
93 -4 88 4 149 10 77 2 -19 6 -65 11 -102z m1341 110 c0 -5 -4 -6 -10 -3 -5 3
-10 2 -10 -3 0 -6 -7 -12 -15 -16 -9 -3 -15 0 -15 10 0 9 5 12 12 8 7 -5 9 -2
5 8 -4 12 -1 14 14 11 10 -3 19 -10 19 -15z m-430 2 c0 -5 -4 -10 -9 -10 -6 0
-13 5 -16 10 -3 6 1 10 9 10 9 0 16 -4 16 -10z m-586 -22 c14 -67 14 -95 1
-95 -9 0 -14 18 -17 59 -3 57 7 80 16 36z m-394 -47 c0 -26 7 -56 15 -67 17
-23 19 -34 4 -34 -14 0 -37 57 -39 100 -3 52 -1 62 10 55 6 -3 10 -28 10 -54z
m-63 17 c-3 -8 -6 -5 -6 6 -1 11 2 17 5 13 3 -3 4 -12 1 -19z m982 -15 c-39
-43 -52 -54 -57 -48 -8 7 63 85 77 85 9 0 2 -14 -20 -37z m-678 -16 c-5 -12
-15 -23 -24 -25 -13 -3 -14 2 -5 32 9 27 14 33 24 25 8 -7 10 -18 5 -32z
m1363 27 c8 -21 8 -24 -3 -24 -5 0 -11 9 -14 20 -6 24 8 27 17 4z m-2024 -8
c0 -3 -4 -8 -10 -11 -5 -3 -10 -1 -10 4 0 6 5 11 10 11 6 0 10 -2 10 -4z m242
-18 c-7 -7 -12 -8 -12 -2 0 14 12 26 19 19 2 -3 -1 -11 -7 -17z m1180 -3 c-2
-14 -9 -25 -14 -25 -5 0 -7 3 -5 8 2 4 7 15 10 25 9 25 15 21 9 -8z m568 11
c0 -21 -27 -27 -42 -9 -11 15 -11 16 5 10 9 -3 17 -2 17 3 0 6 5 10 10 10 6 0
10 -6 10 -14z m-1611 -44 c1 -10 -3 -9 -15 3 -10 9 -13 22 -9 33 7 15 8 15 15
-3 5 -11 9 -26 9 -33z m504 6 c-8 -46 -13 -48 -13 -5 0 21 4 37 10 37 5 0 7
-14 3 -32z m352 22 c3 -6 -1 -7 -9 -4 -18 7 -21 14 -7 14 6 0 13 -4 16 -10z
m272 -13 c-3 -8 -1 -20 4 -28 7 -11 9 -11 9 4 0 9 5 17 10 17 7 0 7 -6 2 -17
-5 -10 -8 -34 -6 -53 2 -19 1 -26 -2 -15 -9 36 -26 75 -33 75 -3 0 -13 -5 -21
-10 -15 -9 -16 -13 -19 -50 -1 -24 -41 -28 -41 -5 0 8 9 24 20 35 11 11 20 23
20 26 0 10 33 33 49 34 7 0 11 -6 8 -13z m-650 -43 c-2 -2 -11 -2 -20 2 -13 4
-14 9 -4 19 10 11 14 10 20 -2 5 -8 7 -17 4 -19z m1163 16 c0 -5 -4 -10 -10
-10 -5 0 -10 5 -10 10 0 6 5 10 10 10 6 0 10 -4 10 -10z m-309 -37 c-9 -15
-10 -14 -7 7 6 35 7 37 12 23 3 -7 1 -20 -5 -30z m-1097 19 c3 -5 -1 -9 -9 -9
-8 0 -12 4 -9 9 3 4 7 8 9 8 2 0 6 -4 9 -8z m534 -17 c10 -21 8 -27 -10 -39
-22 -15 -43 -12 -33 5 4 5 -2 9 -11 9 -14 0 -13 4 7 24 31 31 34 31 47 1z
m725 2 c-5 -8 -8 -7 -11 1 -2 7 -9 9 -14 6 -7 -4 -8 -2 -4 4 4 6 13 9 21 6 8
-4 12 -11 8 -17z m152 3 c8 -13 -6 -40 -21 -40 -8 0 -14 5 -14 10 0 6 5 10 10
10 6 0 10 5 10 10 0 6 -26 11 -57 11 -54 2 -55 2 -18 8 44 7 83 3 90 -9z
m-269 -52 c-13 -103 -32 -151 -30 -75 3 77 16 141 26 124 4 -9 6 -31 4 -49z
m-1134 17 c3 -14 1 -25 -3 -25 -5 0 -9 4 -9 9 0 5 -3 16 -6 25 -3 9 -2 16 4
16 5 0 12 -11 14 -25z m1175 3 c-3 -8 -6 -5 -6 6 -1 11 2 17 5 13 3 -3 4 -12
1 -19z m-889 -1 c11 5 13 3 7 -7 -5 -8 -4 -11 3 -6 6 4 20 1 31 -6 15 -9 23
-9 35 1 8 7 20 10 26 6 5 -3 10 -1 10 6 0 7 2 10 5 7 3 -3 1 -17 -4 -32 -7
-17 -7 -26 -1 -26 6 0 10 -6 10 -14 0 -8 7 -17 16 -20 13 -5 14 -9 4 -21 -7
-8 -18 -15 -25 -15 -8 0 -11 -8 -8 -19 3 -10 0 -22 -6 -25 -8 -5 -8 -13 -1
-27 6 -10 7 -19 3 -19 -4 0 -2 -4 5 -9 19 -11 72 18 109 59 28 31 33 33 54 22
24 -12 24 -12 2 -8 -30 5 -30 -17 -2 -45 l22 -22 -26 5 c-38 7 -57 -7 -33 -25
15 -11 16 -16 6 -22 -9 -5 -11 -4 -6 3 5 8 2 10 -8 6 -9 -3 -16 -1 -16 5 0 6
-4 11 -10 11 -18 0 -11 -18 10 -25 11 -3 20 -11 20 -16 0 -11 -33 -12 -44 -2
-4 4 -14 8 -21 8 -7 0 -41 24 -74 54 -49 43 -59 56 -50 67 7 9 8 14 1 14 -5 0
-12 -7 -16 -15 -6 -17 2 -45 14 -45 9 0 25 -40 22 -52 -1 -4 5 -5 13 -2 8 4
15 1 15 -6 0 -7 6 -10 13 -8 17 6 50 -29 35 -38 -6 -4 -17 1 -24 10 -7 10 -13
13 -16 6 -2 -6 -22 5 -46 25 -23 20 -40 41 -36 46 3 5 -1 9 -8 9 -7 0 -19 9
-26 20 -17 28 -36 26 -20 -2 16 -28 17 -51 3 -60 -7 -5 -7 -12 0 -21 6 -8 23
-33 39 -56 l29 -41 -22 -19 c-22 -19 -28 -41 -11 -41 6 0 10 -7 10 -15 0 -8
-6 -15 -14 -15 -9 0 -16 19 -21 58 -9 80 -45 139 -90 148 -19 3 -35 10 -35 15
0 5 -3 8 -7 8 -27 -4 -53 2 -48 12 4 6 13 8 21 5 16 -6 39 39 29 55 -4 5 1 6
9 3 9 -3 16 -15 16 -25 0 -10 5 -19 10 -19 6 0 23 -11 38 -25 15 -14 30 -25
33 -25 17 0 16 31 -2 54 -22 28 -18 46 9 46 14 0 15 2 2 10 -9 5 -19 5 -27 -1
-7 -6 -17 -7 -24 -3 -8 4 -3 12 15 21 30 16 56 4 56 -24 0 -8 5 -11 12 -7 7 4
8 3 4 -4 -4 -7 -4 -17 0 -24 5 -8 10 -6 14 8 4 11 -1 33 -12 54 -26 46 -42 62
-33 33 5 -18 3 -22 -9 -17 -21 8 -28 34 -11 40 9 4 15 20 15 42 0 27 3 33 11
25 6 -6 18 -9 27 -6z m162 -17 c6 -11 7 -20 2 -20 -10 0 -32 21 -32 32 0 16
19 8 30 -12z m128 -16 c-100 -110 -118 -127 -123 -122 -7 7 135 158 147 158 5
0 -6 -16 -24 -36z m278 9 c-10 -10 -19 5 -10 18 6 11 8 11 12 0 2 -7 1 -15 -2
-18z m-1165 -10 c-12 -20 -14 -14 -5 12 4 9 9 14 11 11 3 -2 0 -13 -6 -23z
m1085 14 c4 -4 -8 -7 -27 -7 -23 0 -30 3 -20 9 15 10 37 9 47 -2z m304 -2 c0
-8 -4 -15 -8 -15 -5 0 -9 7 -9 15 0 8 4 15 9 15 4 0 8 -7 8 -15z m324 -27 c-5
-8 -34 -11 -34 -4 0 2 -3 11 -6 20 -5 13 -2 13 19 3 14 -6 23 -15 21 -19z
m-1504 -107 c18 -69 23 -40 5 33 -19 86 -19 96 4 96 14 0 18 -5 14 -20 -3 -11
-1 -21 3 -21 39 -7 74 -6 74 2 0 5 4 9 10 9 5 0 7 -7 5 -15 -16 -50 -13 -47
-37 -31 -25 18 -38 20 -38 8 0 -14 51 -33 71 -27 15 5 19 1 19 -15 0 -11 11
-32 25 -45 15 -13 22 -26 16 -29 -5 -3 -12 0 -14 6 -4 8 -6 7 -6 -4 -1 -11 -7
-15 -21 -11 -21 6 -28 23 -9 23 7 0 8 7 4 18 -4 9 -8 23 -8 30 0 15 -17 16
-17 1 0 -8 -4 -8 -12 -2 -25 19 -48 23 -48 8 0 -8 6 -12 14 -9 11 4 14 -3 12
-30 -2 -20 1 -39 6 -42 4 -3 5 -10 2 -16 -4 -7 -2 -8 4 -4 6 4 9 13 5 21 -3 8
0 15 5 15 6 0 14 -10 18 -22 12 -37 13 -48 2 -48 -6 0 -8 7 -4 15 3 8 1 15 -4
15 -12 0 -13 -20 -1 -39 8 -12 12 -12 25 -2 18 16 20 12 7 -23 -13 -33 10 -56
36 -35 15 12 16 12 11 -2 -4 -9 -1 -22 5 -28 12 -12 -3 -16 -19 -3 -5 4 -1 -1
9 -10 12 -11 14 -18 7 -18 -10 0 -10 -3 0 -15 7 -8 19 -15 27 -15 8 0 11 -4 8
-10 -3 -5 -1 -19 5 -30 15 -27 7 -25 -37 11 -21 17 3 -8 52 -56 69 -67 80 -81
45 -57 -88 59 -231 226 -215 252 4 7 -2 14 -14 17 -11 3 -23 14 -26 24 -9 28
-45 58 -62 52 -15 -6 -73 43 -73 61 0 5 15 -4 33 -22 44 -43 54 -41 20 5 -37
49 -100 93 -132 93 -19 0 -22 3 -14 11 20 20 69 -9 143 -83 l69 -68 -19 56
c-11 31 -22 79 -25 107 l-5 52 15 -45 c7 -25 19 -65 25 -89z m749 85 c1 -5 -6
-3 -14 4 -14 11 -19 7 -16 -13 2 -11 -52 -56 -61 -50 -13 7 26 53 40 48 7 -3
10 -1 7 5 -3 5 2 18 12 30 16 19 18 19 25 3 3 -10 7 -22 7 -27z m364 24 c-4
-16 -11 -19 -32 -14 -45 11 -47 19 -6 25 22 3 41 7 42 8 0 0 -1 -8 -4 -19z
m749 13 c-6 -2 -10 -9 -7 -14 3 -4 -3 -25 -13 -46 -13 -25 -18 -50 -15 -71 l5
-33 -26 24 c-32 30 -32 38 -1 67 16 15 22 27 16 33 -14 14 10 47 34 46 11 0
14 -3 7 -6z m-1792 -16 c0 -8 -7 -14 -15 -14 -8 0 -15 6 -15 14 0 7 7 13 15
13 8 0 15 -6 15 -13z m153 -2 c4 -8 2 -17 -3 -20 -6 -4 -10 3 -10 14 0 25 6
27 13 6z m807 5 c0 -6 -25 -9 -57 -8 l-58 1 50 7 c28 4 53 8 58 8 4 1 7 -2 7
-8z m-1300 -16 c0 -8 -4 -12 -10 -9 -5 3 -10 10 -10 16 0 5 5 9 10 9 6 0 10
-7 10 -16z m850 6 c0 -13 -11 -13 -30 0 -12 8 -11 10 8 10 12 0 22 -4 22 -10z
m586 -48 c-11 -10 -14 3 -8 33 l7 30 3 -28 c2 -16 1 -31 -2 -35z m134 32 c0
-8 -4 -12 -10 -9 -5 3 -10 10 -10 16 0 5 5 9 10 9 6 0 10 -7 10 -16z m-1098
-34 c2 -14 8 -28 13 -32 6 -4 0 -8 -12 -8 -23 0 -32 15 -12 22 7 2 7 12 -1 33
-7 19 -7 26 -1 20 6 -6 12 -22 13 -35z m712 -107 c3 -56 2 -92 -3 -84 -7 10
-13 11 -30 2 -17 -9 -20 -9 -15 3 3 8 12 17 20 20 9 3 12 11 8 17 -4 8 -3 9 5
5 13 -8 8 30 -9 69 -12 27 -18 95 -8 89 4 -3 8 3 9 13 2 45 18 -46 23 -134z
m-769 127 c3 -5 2 -10 -4 -10 -5 0 -13 5 -16 10 -3 6 -2 10 4 10 5 0 13 -4 16
-10z m105 -5 c0 -8 -4 -15 -10 -15 -5 0 -10 7 -10 15 0 8 5 15 10 15 6 0 10
-7 10 -15z m1180 -24 c0 -14 -31 -22 -54 -14 -19 6 -18 8 9 14 44 10 45 10 45
0z m76 -12 c8 -14 -20 -10 -41 5 -18 13 -18 14 8 9 15 -3 30 -9 33 -14z
m-1343 -10 c-4 -15 -8 -17 -14 -8 -6 11 4 28 18 29 0 0 -1 -9 -4 -21z m788 7
c14 9 10 -12 -5 -25 -11 -9 -13 -6 -13 16 0 16 2 22 4 15 3 -6 9 -10 14 -6z
m-1104 -29 c23 -27 55 -54 112 -94 2 -2 2 -6 -2 -9 -12 -12 -157 102 -157 123
0 22 17 14 47 -20z m28 12 c11 -17 -1 -21 -15 -4 -8 9 -8 15 -2 15 6 0 14 -5
17 -11z m1605 -10 c0 -5 -6 -9 -13 -9 -8 0 -14 6 -14 14 0 8 6 12 14 9 7 -3
13 -9 13 -14z m-400 -3 c0 -2 -7 -9 -15 -16 -13 -11 -14 -10 -9 4 5 14 24 23
24 12z m132 -15 c-5 -3 -11 -15 -13 -25 -2 -11 -10 -21 -17 -22 -7 -1 -8 0 -2
3 5 2 8 9 5 13 -8 13 17 50 28 43 5 -3 5 -8 -1 -12z m-1108 -6 c6 -17 4 -18
-18 -9 -20 8 -21 24 -2 24 8 0 16 -7 20 -15z m1006 -16 c0 -6 -4 -7 -10 -4 -5
3 -10 11 -10 16 0 6 5 7 10 4 6 -3 10 -11 10 -16z m-785 1 c3 -5 1 -10 -4 -10
-6 0 -11 5 -11 10 0 6 2 10 4 10 3 0 8 -4 11 -10z m659 -4 c-6 -15 -54 -17
-54 -2 0 4 9 6 20 3 11 -3 23 -1 26 4 8 14 14 11 8 -5z m36 4 c0 -5 -5 -10
-11 -10 -5 0 -7 5 -4 10 3 6 8 10 11 10 2 0 4 -4 4 -10z m269 -39 c-8 -17 -17
-31 -22 -31 -4 0 -3 9 3 19 5 11 10 30 10 42 0 17 3 20 11 12 8 -8 8 -19 -2
-42z m181 45 c0 -11 -19 -15 -25 -6 -3 5 1 10 9 10 9 0 16 -2 16 -4z m-119
-36 c22 0 77 -37 89 -59 8 -17 6 -25 -11 -42 l-21 -21 4 24 c2 13 9 22 16 20
8 -1 11 2 7 7 -3 6 -13 7 -22 4 -10 -4 -14 -2 -10 4 8 13 -25 44 -49 45 -11 0
-28 -3 -38 -7 -16 -7 -18 -5 -13 9 4 10 7 25 7 34 1 16 2 15 14 0 7 -10 19
-18 27 -18z m-265 -7 c-10 -10 -19 5 -10 18 6 11 8 11 12 0 2 -7 1 -15 -2 -18z
m714 3 c0 -8 3 -21 6 -30 5 -12 0 -16 -22 -16 -26 1 -27 2 -11 14 10 8 15 20
11 30 -3 9 -1 16 5 16 6 0 11 -6 11 -14z m-805 -6 c3 -5 1 -10 -4 -10 -6 0
-11 5 -11 10 0 6 2 10 4 10 3 0 8 -4 11 -10z m-821 -16 c3 -8 2 -12 -4 -9 -6
3 -10 10 -10 16 0 14 7 11 14 -7z m52 4 c5 -8 2 -9 -9 -5 -10 4 -17 1 -17 -5
0 -6 -3 -9 -6 -5 -7 7 4 27 16 27 5 0 12 -5 16 -12z m168 -12 c-3 -9 -10 -16
-15 -16 -5 0 -4 9 3 20 14 22 21 20 12 -4z m786 7 c0 -10 -4 -14 -8 -8 -4 6
-11 13 -16 18 -5 4 -2 7 7 7 10 0 17 -8 17 -17z m292 -15 c-7 -7 -12 -8 -12
-2 0 14 12 26 19 19 2 -3 -1 -11 -7 -17z m-1482 -8 c0 -5 -2 -10 -4 -10 -3 0
-8 5 -11 10 -3 6 -1 10 4 10 6 0 11 -4 11 -10z m455 -10 c10 -11 24 -20 31
-20 7 0 15 -4 19 -10 3 -5 -6 -5 -24 1 -16 6 -32 18 -36 27 -5 14 -7 14 -15 2
-8 -13 -10 -12 -10 3 0 23 13 22 35 -3z m940 10 c-3 -5 -15 -10 -26 -10 -10 0
-19 -2 -19 -4 0 -2 -3 -11 -6 -20 -4 -11 -1 -16 11 -16 9 0 13 -5 10 -11 -4
-6 1 -17 11 -24 23 -17 3 -20 -27 -5 -25 14 -26 68 -1 86 20 16 56 19 47 4z
m-1059 -32 c13 -25 18 -65 20 -173 l2 -140 -8 125 c-9 137 -20 185 -47 206
-17 12 -17 13 -1 14 10 0 25 -14 34 -32z m310 5 c-10 -10 -19 5 -10 18 6 11 8
11 12 0 2 -7 1 -15 -2 -18z m-456 7 c0 -5 -7 -10 -16 -10 -8 0 -12 5 -9 10 3
6 10 10 16 10 5 0 9 -4 9 -10z m930 -10 c0 -5 -5 -10 -11 -10 -5 0 -7 5 -4 10
3 6 8 10 11 10 2 0 4 -4 4 -10z m670 0 c0 -5 -5 -10 -12 -10 -9 0 -9 -3 -1
-11 11 -11 -8 -61 -35 -88 -12 -12 -15 -12 -23 0 -10 16 -2 49 15 64 6 6 12
17 14 25 6 24 42 41 42 20z m-1200 -10 c0 -5 -8 -10 -17 -10 -15 0 -16 2 -3
10 19 12 20 12 20 0z m-417 -17 c-3 -7 -9 -10 -14 -7 -14 8 -11 21 5 21 8 0
12 -6 9 -14z m977 8 c0 -5 -9 -11 -21 -14 -16 -4 -18 -3 -8 9 13 16 29 19 29
5z m-873 -33 c-3 -7 -5 -2 -5 12 0 14 2 19 5 13 2 -7 2 -19 0 -25z m199 6 c0
-10 -4 -28 -10 -39 -9 -19 -10 -18 -18 10 -4 17 -6 36 -3 43 7 19 30 9 31 -14z
m177 19 c-7 -2 -19 -2 -25 0 -7 3 -2 5 12 5 14 0 19 -2 13 -5z m301 -80 c-18
-18 -24 -16 -24 8 0 12 4 17 11 13 7 -4 10 3 9 17 -4 45 2 54 10 15 5 -28 4
-44 -6 -53z m-631 19 c3 -26 9 -63 12 -82 5 -26 4 -31 -4 -20 -6 8 -13 41 -17
73 -4 31 -11 60 -15 63 -14 9 -10 24 5 18 7 -3 16 -26 19 -52z m857 49 c0 -5
-7 -11 -15 -15 -8 -3 -16 -16 -16 -28 l-2 -23 -4 22 c-2 12 2 29 9 37 15 17
28 20 28 7z m-670 -11 c0 -5 -4 -10 -10 -10 -5 0 -10 5 -10 10 0 6 5 10 10 10
6 0 10 -4 10 -10z m520 -5 c0 -2 -7 -5 -15 -9 -9 -3 -15 0 -15 9 0 9 6 12 15
9 8 -4 15 -7 15 -9z m-996 -10 c18 -9 43 -29 55 -45 25 -35 39 -90 22 -90 -6
0 -11 10 -11 22 0 57 -93 135 -126 107 -22 -18 -16 -33 17 -48 37 -16 34 -23
-7 -12 -33 8 -44 41 -22 65 17 20 32 20 72 1z m537 -15 c37 -32 55 -37 62 -17
2 6 11 -2 20 -20 19 -36 6 -54 -16 -23 -13 19 -15 20 -21 3 -4 -10 -2 -19 3
-21 6 -2 11 -10 11 -18 0 -8 5 -14 11 -14 5 0 7 -4 4 -10 -3 -5 -1 -10 4 -10
6 0 11 7 11 15 0 8 -6 15 -12 15 -9 0 -9 3 1 9 18 11 51 -8 44 -25 -2 -7 4
-27 14 -46 28 -52 26 -73 -11 -75 -17 0 -32 -6 -34 -12 -7 -21 -20 -11 -26 22
-9 44 -47 169 -51 165 -2 -2 5 -44 15 -93 22 -104 25 -138 10 -115 -5 8 -10
29 -10 45 0 47 -36 164 -59 196 -24 32 -18 38 12 12 19 -18 19 -17 6 5 -8 12
-17 22 -21 22 -5 0 -8 5 -8 10 0 15 4 13 41 -20z m507 5 c-3 -3 -9 2 -12 12
-6 14 -5 15 5 6 7 -7 10 -15 7 -18z m159 11 c-4 -10 -1 -13 8 -9 8 3 12 9 9
14 -3 5 2 6 11 3 22 -9 14 -27 -17 -35 -21 -5 -25 -3 -23 10 2 9 4 19 4 24 1
4 4 7 7 7 3 0 4 -7 1 -14z m-932 -84 c10 -34 16 -65 13 -67 -5 -6 -29 62 -43
120 -12 53 11 13 30 -53z m740 68 c3 -5 1 -10 -4 -10 -6 0 -11 5 -11 10 0 6 2
10 4 10 3 0 8 -4 11 -10z m-605 -10 c0 -5 -5 -10 -11 -10 -5 0 -7 5 -4 10 3 6
8 10 11 10 2 0 4 -4 4 -10z m757 -51 c-9 -13 -17 -16 -22 -10 -3 6 -2 11 3 11
6 0 13 12 18 28 5 20 8 22 11 10 3 -10 -2 -27 -10 -39z m-107 31 c0 -5 -21 -9
-47 -9 -43 1 -45 2 -18 9 44 11 65 11 65 0z m300 -28 c13 -12 12 -13 -10 -6
-14 4 -49 8 -78 9 -45 0 -50 2 -35 13 10 7 29 10 41 7 15 -4 21 -2 17 5 -8 14
45 -9 65 -28z m-826 -150 c15 -30 26 -58 24 -64 -7 -19 -78 141 -83 185 -5 41
-5 41 13 -13 11 -30 31 -79 46 -108z m-484 132 c0 -2 -7 -4 -15 -4 -8 0 -15 4
-15 10 0 5 7 7 15 4 8 -4 15 -8 15 -10z m1215 -25 c4 -6 4 -13 1 -16 -7 -7
-46 26 -46 39 0 10 36 -8 45 -23z m75 16 c0 -8 -4 -15 -10 -15 -5 0 -10 7 -10
15 0 8 5 15 10 15 6 0 10 -7 10 -15z m-949 -5 c15 -9 17 -15 9 -30 -9 -16 -7
-20 5 -20 10 0 14 -7 11 -22 -2 -13 -8 -22 -12 -21 -5 1 -10 -9 -10 -22 -1
-16 2 -22 12 -18 8 3 14 -1 14 -8 0 -7 3 -10 6 -6 4 3 13 -1 21 -9 22 -21 13
-24 -29 -9 -21 7 -39 8 -40 3 -4 -12 -38 1 -38 14 0 7 4 7 13 0 9 -8 11 7 8
74 -1 46 0 84 4 84 3 0 15 -5 26 -10z m147 -51 c7 -26 15 -55 18 -65 4 -11 4
-16 -1 -12 -10 9 -44 107 -45 128 0 27 17 -5 28 -51z m162 51 c8 -5 11 -10 5
-10 -5 0 -17 5 -25 10 -8 5 -10 10 -5 10 6 0 17 -5 25 -10z m-691 -41 c13 -11
20 -19 15 -19 -11 0 -84 49 -84 56 0 7 40 -15 69 -37z m1121 27 c0 -2 -7 -7
-16 -10 -8 -3 -12 -2 -9 4 6 10 25 14 25 6z m-1240 -16 c0 -5 -7 -10 -15 -10
-9 0 -18 -7 -21 -15 -4 -8 -11 -15 -17 -15 -6 0 0 11 13 25 25 26 40 32 40 15z
m848 -21 c13 -16 20 -29 15 -29 -17 0 -53 31 -53 46 0 21 12 16 38 -17z m688
5 c-4 -9 -9 -15 -11 -12 -3 3 -3 13 1 22 4 9 9 15 11 12 3 -3 3 -13 -1 -22z
m260 11 c12 -9 14 -14 6 -15 -7 0 -11 -4 -7 -9 3 -5 -2 -16 -10 -24 -8 -9 -15
-18 -15 -22 0 -3 -9 -15 -20 -27 -11 -12 -20 -17 -20 -11 0 7 -7 19 -15 27
-17 17 -10 41 23 79 18 21 32 22 58 2z m-756 -5 c-8 -5 -19 -10 -25 -10 -5 0
-3 5 5 10 8 5 20 10 25 10 6 0 3 -5 -5 -10z m323 -55 c24 -10 26 -13 12 -19
-18 -7 -85 51 -85 74 0 7 10 0 22 -15 12 -15 35 -33 51 -40z m-1313 15 c0 -14
-28 -1 -34 16 -4 12 -2 12 14 4 11 -6 20 -15 20 -20z m1230 20 c0 -5 -2 -10
-4 -10 -3 0 -8 5 -11 10 -3 6 -1 10 4 10 6 0 11 -4 11 -10z m295 1 c3 -5 1
-12 -5 -16 -5 -3 -10 1 -10 9 0 18 6 21 15 7z m-1371 -33 c-10 -16 -22 -7 -17
13 4 15 8 17 14 8 4 -7 5 -17 3 -21z m956 9 c-27 -15 -36 -14 -25 2 3 6 16 11
28 11 21 0 21 -1 -3 -13z m-1150 -49 c0 -12 -48 13 -54 29 -4 11 1 10 24 -4
17 -9 30 -21 30 -25z m283 22 c32 -6 57 -14 54 -16 -7 -7 -111 16 -122 28 -6
6 -6 9 0 6 6 -3 36 -11 68 -18z m827 0 c0 -5 6 -10 14 -10 8 0 24 -9 37 -21
l24 -21 -27 16 c-15 9 -34 16 -42 16 -7 0 -16 7 -20 15 -3 8 -1 15 4 15 6 0
10 -4 10 -10z m205 0 c3 -5 -1 -10 -9 -10 -9 0 -16 5 -16 10 0 6 4 10 9 10 6
0 13 -4 16 -10z m-445 -10 c0 -5 -10 -10 -22 -10 -19 0 -20 2 -8 10 19 13 30
13 30 0z m217 -6 c-3 -3 -12 -4 -19 -1 -8 3 -5 6 6 6 11 1 17 -2 13 -5z m-849
-49 c12 -4 22 -11 22 -15 0 -14 -29 -32 -41 -24 -7 4 -9 3 -6 -2 8 -14 -70
-15 -81 -1 -18 22 -17 29 8 42 25 13 58 14 98 0z m577 -4 c-3 -6 -11 -11 -16
-11 -5 0 -4 6 3 14 14 16 24 13 13 -3z m375 -1 c25 -25 27 -50 3 -27 -10 8
-36 19 -57 23 -36 6 -39 5 -32 -12 14 -36 15 -54 2 -54 -8 0 -19 14 -26 30
-10 24 -10 33 0 45 19 22 86 19 110 -5z m-464 -9 c-7 -11 38 -31 70 -31 17 0
23 4 18 13 -6 10 -4 10 7 0 7 -7 37 -13 66 -13 29 0 53 -4 53 -9 0 -5 3 -18 6
-28 5 -14 4 -15 -4 -4 -8 12 -13 12 -25 2 -10 -8 -17 -9 -22 -1 -3 5 1 10 9
10 9 0 16 5 16 10 0 6 -38 10 -92 10 -51 0 -97 4 -103 8 -14 10 -18 42 -5 42
6 0 9 -4 6 -9z m-161 -11 c3 -6 -1 -7 -9 -4 -18 7 -21 14 -7 14 6 0 13 -4 16
-10z m876 -42 c-12 -22 -122 -110 -168 -135 -17 -9 -24 -8 -34 3 -9 11 -8 14
2 14 31 0 109 45 109 63 0 10 5 15 11 12 11 -7 52 29 43 38 -3 3 0 8 7 13 8 4
10 3 5 -4 -4 -7 -3 -12 2 -12 14 0 22 12 15 24 -4 6 -8 17 -10 25 -1 11 2 10
15 -2 13 -14 14 -20 3 -39z m-1028 35 c-13 -2 -35 -2 -50 0 -16 2 -5 4 22 4
28 0 40 -2 28 -4z m184 -7 c-4 -10 1 -13 16 -10 12 2 7 -1 -11 -8 -37 -13 -50
-6 -31 16 17 19 33 20 26 2z m97 -1 c3 -8 1 -15 -4 -15 -6 0 -10 7 -10 15 0 8
2 15 4 15 2 0 6 -7 10 -15z m552 -22 c-10 -11 -19 -7 -22 10 -2 15 0 16 12 6
8 -6 12 -14 10 -16z m-1172 8 c4 -5 -1 -8 -9 -7 -21 3 -31 16 -12 16 9 0 18
-4 21 -9z m1106 -1 c0 -5 -4 -10 -10 -10 -5 0 -10 5 -10 10 0 6 5 10 10 10 6
0 10 -4 10 -10z m-820 -10 c0 -5 -2 -10 -4 -10 -3 0 -8 5 -11 10 -3 6 -1 10 4
10 6 0 11 -4 11 -10z m917 -12 c-3 -8 -6 -5 -6 6 -1 11 2 17 5 13 3 -3 4 -12
1 -19z m-534 5 c-7 -2 -21 -2 -30 0 -10 3 -4 5 12 5 17 0 24 -2 18 -5z m-448
-13 c3 -5 2 -10 -4 -10 -5 0 -13 5 -16 10 -3 6 -2 10 4 10 5 0 13 -4 16 -10z
m1032 -12 c-3 -8 -6 -5 -6 6 -1 11 2 17 5 13 3 -3 4 -12 1 -19z m-907 2 c0 -5
-5 -10 -11 -10 -5 0 -7 5 -4 10 3 6 8 10 11 10 2 0 4 -4 4 -10z m960 0 c0 -5
-4 -10 -10 -10 -5 0 -10 5 -10 10 0 6 5 10 10 10 6 0 10 -4 10 -10z m-1012 -7
c-10 -2 -28 -2 -40 0 -13 2 -5 4 17 4 22 1 32 -1 23 -4z m706 -78 c-9 -22 -26
-7 -19 16 4 10 2 19 -4 19 -6 0 -8 7 -4 15 4 12 8 10 19 -10 7 -14 11 -32 8
-40z m266 55 c0 -5 -4 -10 -10 -10 -5 0 -10 5 -10 10 0 6 5 10 10 10 6 0 10
-4 10 -10z m-50 -15 c0 -8 -4 -15 -10 -15 -5 0 -10 7 -10 15 0 8 5 15 10 15 6
0 10 -7 10 -15z m-1076 -10 c3 -8 1 -15 -4 -15 -6 0 -10 5 -10 11 0 5 -5 7
-12 3 -7 -4 -8 -3 -4 4 10 16 23 15 30 -3z m316 4 c0 -5 -5 -7 -12 -3 -7 5 -8
3 -4 -5 5 -7 14 -10 22 -7 7 3 16 1 19 -4 10 -16 -32 -11 -49 6 -21 20 -20 24
4 24 11 0 20 -5 20 -11z m734 -5 c10 -26 6 -30 -9 -10 -13 17 -15 18 -15 3 0
-9 -4 -17 -10 -17 -20 0 1 39 21 40 4 0 10 -7 13 -16z m-659 -24 c-6 -9 -9 -9
-16 1 -10 17 0 34 13 21 6 -6 7 -16 3 -22z m329 15 c4 -11 -1 -15 -19 -15 -29
0 -34 16 -7 23 9 3 18 5 18 6 1 0 4 -6 8 -14z m20 -20 c-15 -14 -30 -25 -33
-26 -38 -5 -48 -4 -45 5 2 6 17 12 32 13 15 0 31 8 37 17 5 9 16 16 23 16 7 0
1 -11 -14 -25z m243 -5 c0 -16 -4 -30 -9 -30 -5 0 -6 -5 -3 -11 5 -7 13 -5 24
5 22 20 31 20 31 1 0 -11 -72 -54 -100 -60 -25 -5 -50 -18 -50 -26 0 -6 -5 -7
-11 -4 -6 4 -8 13 -5 21 3 8 -1 17 -9 20 -8 4 -15 10 -15 16 0 5 5 6 11 2 8
-4 9 0 4 15 -3 12 -2 21 4 21 5 0 11 -12 13 -27 2 -23 8 -28 28 -27 38 2 39 3
32 26 -4 17 -2 20 11 15 13 -5 17 -1 17 19 0 19 14 48 26 54 0 0 1 -13 1 -30z
m-67 -2 c0 -17 -3 -19 -9 -9 -5 8 -11 9 -15 3 -8 -13 3 -42 15 -42 5 0 9 -4 9
-10 0 -5 -6 -10 -14 -10 -20 0 -31 57 -16 75 18 22 30 18 30 -7z m-91 -32 c0
-14 -2 -16 -6 -6 -3 8 -10 21 -16 28 -7 9 -6 11 7 6 9 -3 16 -16 15 -28z m5
-41 c15 -14 23 -25 17 -25 -5 0 -13 5 -16 10 -4 6 -10 8 -15 5 -4 -3 -10 4
-13 15 -7 25 -5 25 27 -5z m4 -28 c20 -13 14 -34 -12 -39 -16 -3 -27 0 -30 9
-4 9 -1 12 7 8 6 -4 4 0 -5 8 -10 8 -18 17 -18 21 0 8 41 3 58 -7z m282 -27
c-19 -12 -33 -8 -38 11 -3 12 -2 12 7 -1 8 -12 11 -12 17 3 5 14 10 15 18 7 8
-8 7 -13 -4 -20z m-400 -117 c0 -5 -4 -15 -10 -23 -11 -18 -25 -7 -17 15 6 15
27 21 27 8z m-96 -15 c-3 -4 -17 -8 -32 -8 -17 0 -22 3 -15 8 16 10 53 10 47
0z m56 2 c0 -5 -9 -10 -20 -10 -11 0 -20 5 -20 10 0 6 9 10 20 10 11 0 20 -4
20 -10z"/>
<path d="M956 1975 c7 -17 20 -20 28 -6 3 5 -1 12 -10 15 -22 9 -24 8 -18 -9z"/>
<path d="M500 1900 c0 -5 5 -10 10 -10 6 0 10 5 10 10 0 6 -4 10 -10 10 -5 0
-10 -4 -10 -10z"/>
<path d="M480 1869 c0 -5 5 -7 10 -4 6 3 10 8 10 11 0 2 -4 4 -10 4 -5 0 -10
-5 -10 -11z"/>
<path d="M363 1696 c0 -8 6 -12 14 -9 7 3 10 9 7 14 -8 14 -21 11 -21 -5z"/>
<path d="M480 1675 c12 -15 30 -12 30 6 0 5 -10 9 -21 9 -18 0 -19 -2 -9 -15z"/>
<path d="M295 1530 c-3 -5 -1 -10 4 -10 6 0 11 5 11 10 0 6 -2 10 -4 10 -3 0
-8 -4 -11 -10z"/>
<path d="M295 1500 c-3 -5 -1 -10 4 -10 6 0 11 5 11 10 0 6 -2 10 -4 10 -3 0
-8 -4 -11 -10z"/>
<path d="M287 1459 c7 -7 15 -10 18 -7 3 3 -2 9 -12 12 -14 6 -15 5 -6 -5z"/>
<path d="M282 1378 c3 -7 13 -15 23 -17 17 -3 17 -2 3 13 -20 19 -31 21 -26 4z"/>
<path d="M406 1341 c-4 -7 -5 -15 -2 -18 9 -9 19 4 14 18 -4 11 -6 11 -12 0z"/>
<path d="M250 1330 c0 -5 5 -10 10 -10 6 0 10 5 10 10 0 6 -4 10 -10 10 -5 0
-10 -4 -10 -10z"/>
<path d="M282 1317 c-8 -9 -4 -12 14 -12 27 0 32 10 10 18 -8 3 -19 0 -24 -6z"/>
<path d="M386 1302 c-2 -4 -1 -14 5 -22 7 -13 9 -12 9 2 0 9 6 19 13 21 7 3 6
6 -5 6 -9 1 -19 -3 -22 -7z"/>
<path d="M320 1290 c-12 -7 -10 -11 10 -18 14 -5 27 -7 30 -4 3 2 -1 7 -8 9
-6 3 -10 9 -6 14 7 12 -7 11 -26 -1z"/>
<path d="M307 1243 c-4 -3 -7 -13 -7 -20 0 -20 23 -11 26 10 2 17 -7 22 -19
10z"/>
<path d="M294 1175 c-1 -15 3 -25 12 -25 9 0 11 -6 6 -21 -4 -11 -6 -35 -4
-54 l4 -33 24 21 c29 25 31 44 4 52 -14 4 -19 12 -16 23 3 9 -2 27 -12 39
l-17 23 -1 -25z"/>
<path d="M321 1184 c0 -11 3 -14 6 -6 3 7 2 16 -1 19 -3 4 -6 -2 -5 -13z"/>
<path d="M258 1113 c7 -3 16 -2 19 1 4 3 -2 6 -13 5 -11 0 -14 -3 -6 -6z"/>
<path d="M270 1085 c7 -9 15 -13 17 -11 7 7 -7 26 -19 26 -6 0 -6 -6 2 -15z"/>
<path d="M375 1090 c-3 -5 -1 -10 4 -10 6 0 11 5 11 10 0 6 -2 10 -4 10 -3 0
-8 -4 -11 -10z"/>
<path d="M383 1043 c1 -17 6 -29 11 -26 4 3 12 -1 17 -8 7 -11 9 -10 9 4 0 10
-9 27 -20 39 l-19 21 2 -30z"/>
<path d="M323 1025 c-3 -9 -3 -18 -1 -21 3 -3 8 4 11 16 6 23 -1 27 -10 5z"/>
<path d="M280 970 c0 -5 7 -10 16 -10 8 0 12 5 9 10 -3 6 -10 10 -16 10 -5 0
-9 -4 -9 -10z"/>
<path d="M430 920 c0 -5 5 -10 11 -10 5 0 7 5 4 10 -3 6 -8 10 -11 10 -2 0 -4
-4 -4 -10z"/>
<path d="M531 914 c0 -11 3 -14 6 -6 3 7 2 16 -1 19 -3 4 -6 -2 -5 -13z"/>
<path d="M490 910 c0 -5 5 -10 10 -10 6 0 9 -3 9 -7 -1 -5 -1 -15 0 -23 1 -12
3 -13 10 -1 12 18 2 51 -15 51 -8 0 -14 -4 -14 -10z"/>
<path d="M457 863 c-4 -3 -2 -12 4 -19 6 -7 11 -27 11 -44 2 -50 18 -46 18 4
0 35 -4 46 -16 46 -8 0 -12 5 -9 10 7 11 2 13 -8 3z"/>
<path d="M320 741 c0 -6 4 -13 10 -16 6 -3 7 1 4 9 -7 18 -14 21 -14 7z"/>
<path d="M416 685 c4 -8 8 -15 10 -15 2 0 4 7 4 15 0 8 -4 15 -10 15 -5 0 -7
-7 -4 -15z"/>
<path d="M360 677 c0 -12 31 -58 62 -92 15 -16 40 -45 56 -62 16 -18 33 -33
37 -33 5 0 -2 12 -16 28 -14 15 -37 43 -52 62 -43 57 -86 106 -87 97z"/>
<path d="M650 505 c0 -5 5 -17 10 -25 5 -8 10 -10 10 -5 0 6 -5 17 -10 25 -5
8 -10 11 -10 5z"/>
<path d="M690 491 c0 -6 4 -13 10 -16 6 -3 7 1 4 9 -7 18 -14 21 -14 7z"/>
<path d="M596 415 c4 -8 10 -15 16 -15 5 0 21 -11 35 -24 15 -14 30 -23 34
-20 12 7 3 39 -12 40 -26 2 -59 16 -59 25 0 5 -4 9 -10 9 -5 0 -7 -7 -4 -15z"/>
<path d="M1176 385 c4 -8 8 -15 10 -15 2 0 4 7 4 15 0 8 -4 15 -10 15 -5 0 -7
-7 -4 -15z"/>
<path d="M1302 370 c-14 -12 -20 -24 -16 -35 6 -14 8 -14 24 0 16 15 18 14 24
-7 l6 -23 16 25 c14 24 15 24 9 2 -5 -16 -3 -23 7 -21 7 1 21 1 32 0 15 -1 16
-4 6 -15 -12 -15 -39 -11 -52 8 -5 8 -8 7 -8 -1 0 -6 4 -14 10 -18 5 -3 7 -12
4 -19 -3 -8 -1 -17 5 -21 7 -3 8 0 5 9 -5 12 1 14 25 11 17 -2 31 1 31 6 0 5
-6 9 -12 10 -7 0 -5 4 5 7 16 7 16 9 1 30 -8 12 -19 20 -24 17 -5 -3 -11 -1
-14 4 -3 5 1 11 9 15 17 6 20 26 4 26 -5 0 -7 -4 -4 -10 3 -5 -1 -10 -9 -10
-9 0 -16 5 -16 12 0 6 -3 8 -6 5 -4 -3 -14 -2 -23 2 -11 6 -23 3 -39 -9z"/>
<path d="M1525 380 c-3 -5 -1 -10 4 -10 6 0 11 5 11 10 0 6 -2 10 -4 10 -3 0
-8 -4 -11 -10z"/>
<path d="M1145 360 c-17 -6 -17 -7 -2 -13 20 -7 19 -54 0 -61 -26 -10 -12 -21
29 -24 23 -1 48 -8 56 -14 10 -9 16 -8 22 2 5 8 6 18 4 22 -11 17 34 7 51 -12
23 -25 41 -25 48 0 3 13 0 20 -9 20 -7 0 -11 6 -8 13 3 8 -2 20 -11 27 -11 10
-15 10 -15 0 0 -7 -7 -10 -16 -6 -10 4 -25 -1 -35 -10 -23 -20 -58 -11 -40 10
10 12 8 13 -8 9 -25 -6 -26 -16 -5 -37 8 -9 10 -16 4 -16 -6 0 -13 7 -17 16
-4 11 -8 12 -13 4 -4 -7 -7 -1 -7 15 0 19 6 29 18 32 11 3 19 9 19 13 0 11
-43 18 -65 10z m165 -66 c0 -2 -7 -4 -15 -4 -8 0 -15 4 -15 10 0 5 7 7 15 4 8
-4 15 -8 15 -10z"/>
<path d="M1018 349 c-10 -7 -10 -9 3 -9 9 0 22 -7 29 -15 9 -10 9 -15 1 -15
-6 0 -11 5 -11 11 0 5 -4 7 -10 4 -24 -15 -6 -24 40 -20 30 2 50 0 50 -6 0 -6
5 -7 10 -4 6 3 10 15 10 26 0 13 -4 18 -12 13 -16 -10 -60 -15 -54 -6 7 12
-41 30 -56 21z"/>
<path d="M1247 351 c-17 -6 -17 -8 -3 -20 12 -10 16 -10 16 -2 0 7 4 9 10 6 6
-3 7 1 4 9 -3 9 -7 16 -8 15 0 0 -9 -4 -19 -8z"/>
<path d="M1483 310 c4 -17 3 -20 -6 -11 -17 17 -24 14 -29 -14 -4 -19 -2 -23
7 -15 7 6 17 10 21 9 5 -1 15 -1 22 0 17 1 11 43 -7 49 -10 3 -12 -1 -8 -18z"/>
<path d="M1049 289 c-9 -5 -9 -9 -2 -9 6 0 18 -3 27 -6 9 -3 16 -2 16 4 0 15
-25 21 -41 11z"/>
<path d="M1267 256 c-11 -27 1 -33 21 -11 9 10 12 15 5 11 -6 -3 -13 -1 -15 6
-3 7 -7 5 -11 -6z"/>
<path d="M1078 253 c7 -3 16 -2 19 1 4 3 -2 6 -13 5 -11 0 -14 -3 -6 -6z"/>
<path d="M1190 246 c0 -2 7 -6 15 -10 8 -3 15 -1 15 4 0 6 -7 10 -15 10 -8 0
-15 -2 -15 -4z"/>
<path d="M1501 1787 c2 -1 13 -9 24 -17 19 -14 19 -14 6 3 -7 9 -18 17 -24 17
-6 0 -8 -1 -6 -3z"/>
<path d="M1568 1768 c9 -9 15 -9 24 0 9 9 7 12 -12 12 -19 0 -21 -3 -12 -12z"/>
<path d="M1600 1755 c-8 -9 -8 -15 -2 -15 12 0 26 19 19 26 -2 2 -10 -2 -17
-11z"/>
<path d="M1756 1744 c-5 -12 -2 -15 10 -10 8 3 18 6 20 6 3 0 2 5 -1 10 -9 15
-22 12 -29 -6z"/>
<path d="M1650 1720 c0 -5 5 -10 11 -10 5 0 7 5 4 10 -3 6 -8 10 -11 10 -2 0
-4 -4 -4 -10z"/>
<path d="M1710 1643 c0 -17 26 -23 57 -12 l28 9 -31 -4 c-17 -3 -36 0 -43 7
-8 8 -11 8 -11 0z"/>
<path d="M1755 1608 c-4 -9 -2 -25 3 -35 10 -17 11 -17 17 -1 4 9 2 25 -3 35
-10 17 -11 17 -17 1z"/>
<path d="M1820 1605 c0 -8 2 -15 4 -15 2 0 6 7 10 15 3 8 1 15 -4 15 -6 0 -10
-7 -10 -15z"/>
<path d="M1840 1590 c0 -5 5 -10 11 -10 5 0 7 5 4 10 -3 6 -8 10 -11 10 -2 0
-4 -4 -4 -10z"/>
<path d="M1785 1551 c-6 -11 9 -23 19 -14 9 9 7 23 -3 23 -6 0 -12 -4 -16 -9z"/>
<path d="M1815 1518 c6 -19 5 -21 -6 -10 -7 6 -17 12 -23 12 -5 0 1 -8 12 -19
12 -10 18 -21 15 -25 -4 -4 -1 -11 7 -16 21 -14 36 -12 22 2 -7 7 -12 27 -12
45 0 18 -5 33 -11 33 -6 0 -8 -9 -4 -22z"/>
<path d="M1720 1510 c0 -5 7 -7 15 -4 8 4 15 8 15 10 0 2 -7 4 -15 4 -8 0 -15
-4 -15 -10z"/>
<path d="M1867 1449 c7 -7 15 -10 18 -7 3 3 -2 9 -12 12 -14 6 -15 5 -6 -5z"/>
<path d="M1721 1394 c13 -16 29 -19 29 -5 0 5 -9 11 -21 14 -16 4 -18 3 -8 -9z"/>
<path d="M1826 1713 c-6 -14 -5 -15 5 -6 7 7 10 15 7 18 -3 3 -9 -2 -12 -12z"/>
<path d="M1350 1767 c0 -8 7 -14 15 -14 11 0 12 4 4 14 -6 7 -13 13 -15 13 -2
0 -4 -6 -4 -13z"/>
<path d="M1328 1723 c6 -2 10 -9 6 -14 -3 -5 0 -9 5 -9 6 0 11 7 11 15 0 8 -8
15 -17 14 -11 0 -13 -3 -5 -6z"/>
<path d="M1377 1679 c4 -13 8 -18 11 -10 2 7 -1 18 -6 23 -8 8 -9 4 -5 -13z"/>
<path d="M1341 1671 c13 -11 26 -17 29 -14 6 6 -30 33 -43 33 -5 0 1 -9 14
-19z"/>
<path d="M1230 1650 c-8 -5 -11 -12 -7 -16 4 -4 13 -2 19 4 6 6 10 14 7 16 -2
3 -11 1 -19 -4z"/>
<path d="M755 1631 c-3 -5 -1 -12 5 -16 5 -3 10 1 10 9 0 18 -6 21 -15 7z"/>
<path d="M1025 1230 c-3 -5 -1 -10 4 -10 6 0 11 5 11 10 0 6 -2 10 -4 10 -3 0
-8 -4 -11 -10z"/>
<path d="M1055 1220 c-3 -5 1 -10 9 -10 9 0 16 5 16 10 0 6 -4 10 -9 10 -6 0
-13 -4 -16 -10z"/>
<path d="M1090 1196 c0 -2 7 -9 15 -16 12 -10 15 -10 15 4 0 9 -7 16 -15 16
-8 0 -15 -2 -15 -4z"/>
<path d="M1128 1143 c6 -2 18 -2 25 0 6 3 1 5 -13 5 -14 0 -19 -2 -12 -5z"/>
<path d="M1116 1075 c4 -8 8 -15 10 -15 2 0 4 7 4 15 0 8 -4 15 -10 15 -5 0
-7 -7 -4 -15z"/>
<path d="M1250 1044 c0 -8 5 -12 10 -9 6 3 10 10 10 16 0 5 -4 9 -10 9 -5 0
-10 -7 -10 -16z"/>
<path d="M780 856 c0 -2 8 -10 18 -17 15 -13 16 -12 3 4 -13 16 -21 21 -21 13z"/>
<path d="M1293 694 c8 -45 12 -50 32 -34 10 8 15 9 15 1 0 -6 7 -11 15 -11 8
0 15 5 15 10 0 6 -3 10 -7 10 -5 0 -16 14 -25 30 -9 17 -25 30 -34 30 -14 0
-16 -7 -11 -36z"/>
<path d="M1250 2454 c0 -16 9 -18 28 -5 10 6 9 10 -7 14 -14 3 -21 0 -21 -9z"/>
<path d="M1160 2449 c0 -5 5 -7 10 -4 6 3 10 8 10 11 0 2 -4 4 -10 4 -5 0 -10
-5 -10 -11z"/>
<path d="M1780 2422 c0 -14 11 -21 26 -15 8 3 11 9 8 14 -7 11 -34 12 -34 1z"/>
<path d="M1830 2400 c0 -5 5 -10 10 -10 6 0 10 5 10 10 0 6 -4 10 -10 10 -5 0
-10 -4 -10 -10z"/>
<path d="M1857 2386 c-4 -9 -3 -15 1 -15 18 3 32 -2 48 -18 12 -12 16 -13 13
-4 -3 8 -14 19 -25 25 -10 6 -22 15 -25 19 -3 5 -9 2 -12 -7z"/>
<path d="M2452 1733 c2 -9 9 -18 16 -19 7 -1 8 0 3 2 -6 3 -7 12 -4 20 3 8 0
14 -7 14 -6 0 -10 -8 -8 -17z"/>
</g>
</svg>
